<svg xmlns="http://www.w3.org/2000/svg" xmlns:xlink="http://www.w3.org/1999/xlink" width="1080" zoomAndPan="magnify" viewBox="0 0 810 809.999993" height="1080" preserveAspectRatio="xMidYMid meet" version="1.2"><defs/><g id="cc9611fba3"><g style="fill:#20493c;fill-opacity:1;"><g transform="translate(217.166009, 436.025038)"><path style="stroke:none" d="M 27.625 -56.390625 C 36.78125 -56.390625 43.765625 -54.023438 48.578125 -49.296875 C 53.398438 -44.566406 55.8125 -37.535156 55.8125 -28.203125 C 55.8125 -18.890625 53.398438 -11.859375 48.578125 -7.109375 C 43.765625 -2.367188 36.78125 0 27.625 0 L 7.328125 0 L 7.328125 -56.390625 Z M 26.96875 -9.375 C 32.78125 -9.375 37.125 -10.859375 40 -13.828125 C 42.882812 -16.796875 44.328125 -21.585938 44.328125 -28.203125 C 44.328125 -34.804688 42.882812 -39.59375 40 -42.5625 C 37.125 -45.53125 32.78125 -47.015625 26.96875 -47.015625 L 18.484375 -47.015625 L 18.484375 -9.375 Z M 26.96875 -9.375 "/></g></g><g style="fill:#20493c;fill-opacity:1;"><g transform="translate(277.454534, 436.025038)"><path style="stroke:none" d="M 29.890625 0.8125 C 22.128906 0.8125 16.367188 -1.03125 12.609375 -4.71875 C 8.859375 -8.414062 6.984375 -13.890625 6.984375 -21.140625 L 6.984375 -56.390625 L 17.90625 -56.390625 L 17.90625 -21.21875 C 17.90625 -17.101562 18.894531 -14.015625 20.875 -11.953125 C 22.851562 -9.898438 25.859375 -8.875 29.890625 -8.875 C 37.890625 -8.875 41.890625 -12.988281 41.890625 -21.21875 L 41.890625 -56.390625 L 52.8125 -56.390625 L 52.8125 -21.140625 C 52.8125 -13.890625 50.929688 -8.414062 47.171875 -4.71875 C 43.421875 -1.03125 37.660156 0.8125 29.890625 0.8125 Z M 29.890625 0.8125 "/></g></g><g style="fill:#20493c;fill-opacity:1;"><g transform="translate(337.241614, 436.025038)"><path style="stroke:none" d="M 7.328125 0 L 7.328125 -56.390625 L 29.96875 -56.390625 C 35.8125 -56.390625 40.21875 -55.046875 43.1875 -52.359375 C 46.15625 -49.671875 47.640625 -45.960938 47.640625 -41.234375 C 47.640625 -37.816406 46.769531 -35.015625 45.03125 -32.828125 C 43.300781 -30.640625 40.710938 -28.96875 37.265625 -27.8125 L 37.265625 -27 C 39.035156 -26.226562 40.46875 -25.082031 41.5625 -23.5625 C 42.65625 -22.050781 43.691406 -19.800781 44.671875 -16.8125 L 50.296875 0 L 38.84375 0 L 33.328125 -16.859375 C 32.765625 -18.554688 32.128906 -19.875 31.421875 -20.8125 C 30.710938 -21.75 29.8125 -22.425781 28.71875 -22.84375 C 27.625 -23.269531 26.203125 -23.484375 24.453125 -23.484375 L 18.484375 -23.484375 L 18.484375 0 Z M 28.625 -32.328125 C 34.019531 -32.328125 36.71875 -34.847656 36.71875 -39.890625 C 36.71875 -45.003906 34.019531 -47.5625 28.625 -47.5625 L 18.484375 -47.5625 L 18.484375 -32.328125 Z M 28.625 -32.328125 "/></g></g><g style="fill:#20493c;fill-opacity:1;"><g transform="translate(389.969967, 436.025038)"><path style="stroke:none" d="M 54.125 0 L 42.390625 0 L 38.15625 -13 L 16.546875 -13 L 12.3125 0 L 0.84375 0 L 20.328125 -56.390625 L 34.640625 -56.390625 Z M 26.8125 -44.625 L 19.5625 -22.375 L 35.0625 -22.375 L 27.78125 -44.625 Z M 26.8125 -44.625 "/></g></g><g style="fill:#20493c;fill-opacity:1;"><g transform="translate(444.935513, 436.025038)"><path style="stroke:none" d="M 25 0.8125 C 21.09375 0.8125 17.613281 0.332031 14.5625 -0.625 C 11.507812 -1.59375 8.96875 -2.863281 6.9375 -4.4375 C 4.90625 -6.007812 3.351562 -7.734375 2.28125 -9.609375 L 8.40625 -17.09375 L 9.375 -17.09375 C 11.070312 -14.570312 13.222656 -12.5625 15.828125 -11.0625 C 18.441406 -9.570312 21.5 -8.828125 25 -8.828125 C 27.976562 -8.828125 30.222656 -9.457031 31.734375 -10.71875 C 33.253906 -11.976562 34.015625 -13.71875 34.015625 -15.9375 C 34.015625 -17.269531 33.769531 -18.382812 33.28125 -19.28125 C 32.800781 -20.1875 31.992188 -20.957031 30.859375 -21.59375 C 29.722656 -22.238281 28.191406 -22.796875 26.265625 -23.265625 L 19.015625 -24.921875 C 13.953125 -26.078125 10.175781 -28 7.6875 -30.6875 C 5.207031 -33.375 3.96875 -36.863281 3.96875 -41.15625 C 3.96875 -44.34375 4.765625 -47.144531 6.359375 -49.5625 C 7.953125 -51.976562 10.273438 -53.851562 13.328125 -55.1875 C 16.378906 -56.53125 20.023438 -57.203125 24.265625 -57.203125 C 28.609375 -57.203125 32.328125 -56.628906 35.421875 -55.484375 C 38.523438 -54.335938 41.144531 -52.582031 43.28125 -50.21875 L 37.765625 -42.65625 L 36.796875 -42.65625 C 35.203125 -44.332031 33.375 -45.585938 31.3125 -46.421875 C 29.257812 -47.253906 26.910156 -47.671875 24.265625 -47.671875 C 21.203125 -47.671875 18.875 -47.128906 17.28125 -46.046875 C 15.6875 -44.972656 14.890625 -43.484375 14.890625 -41.578125 C 14.890625 -39.804688 15.445312 -38.394531 16.5625 -37.34375 C 17.6875 -36.289062 19.625 -35.46875 22.375 -34.875 L 29.78125 -33.328125 C 35.257812 -32.171875 39.234375 -30.207031 41.703125 -27.4375 C 44.171875 -24.675781 45.40625 -21.070312 45.40625 -16.625 C 45.40625 -13.101562 44.644531 -10.035156 43.125 -7.421875 C 41.601562 -4.816406 39.3125 -2.789062 36.25 -1.34375 C 33.195312 0.09375 29.445312 0.8125 25 0.8125 Z M 25 0.8125 "/></g></g><g style="fill:#20493c;fill-opacity:1;"><g transform="translate(493.382334, 436.025038)"><path style="stroke:none" d=""/></g></g><g style="fill:#20493c;fill-opacity:1;"><g transform="translate(512.012765, 436.025038)"><path style="stroke:none" d="M 54.125 0 L 42.390625 0 L 38.15625 -13 L 16.546875 -13 L 12.3125 0 L 0.84375 0 L 20.328125 -56.390625 L 34.640625 -56.390625 Z M 26.8125 -44.625 L 19.5625 -22.375 L 35.0625 -22.375 L 27.78125 -44.625 Z M 26.8125 -44.625 "/></g></g><g style="fill:#20493c;fill-opacity:1;"><g transform="translate(566.978323, 436.025038)"><path style="stroke:none" d="M 18.484375 0 L 7.328125 0 L 7.328125 -56.390625 L 18.484375 -56.390625 Z M 18.484375 0 "/></g></g></g></svg>